<svg xmlns="http://www.w3.org/2000/svg" enable-background="new 0 0 24 24" viewBox="0 0 24 24" id="adobe-aftereffects">
  <path fill="#1F0640" d="M0,2v20c0,1.105,0.896,2,2,2h20c1.104,0,2-0.895,2-2V2c0-1.105-0.895-2-2-2H2C0.896,0,0,0.895,0,2L0,2z"></path>
  <path fill="#3C2659" d="M22,0H12v24h10c1.104,0,2-0.895,2-2V2C24,0.895,23.104,0,22,0L22,0z"></path>
  <path fill="#D291FE" d="M22,1c0.552,0,1,0.449,1,1v20c0,0.552-0.448,1-1,1H2c-0.552,0-1-0.449-1-1V2c0-0.552,0.448-1,1-1H22L22,1z M22,0H2C0.896,0,0,0.895,0,2v20c0,1.105,0.896,2,2,2h20c1.104,0,2-0.895,2-2V2C24,0.895,23.104,0,22,0L22,0z"></path>
  <path fill="#B77EDD" d="M12,0H2C0.896,0,0,0.895,0,2v20c0,1.105,0.896,2,2,2h10v-1H2c-0.552,0-1-0.449-1-1V2c0-0.552,0.448-1,1-1h10V0L12,0z"></path>
  <path fill="#D291FE" d="M16.502 8.086c-2.144 0-3.367 1.93-3.367 4.29 0 2.178.99 4.125 3.63 4.125.826 0 1.483-.116 2.011-.38.066-.05.1-.1.1-.2v-1.254L18.758 14.6c-.527.232-1.036.31-1.63.31-1.517 0-2.159-.906-2.178-2.257h2.604c.875 0 1.469-.033 1.667-.066l.132-.127c.051-.181.086-.577.086-1.057C19.439 9.919 18.68 8.086 16.502 8.086L16.502 8.086zM17.722 11.259c-.049.016-.23.016-.742.016l-.002-.002h-2.014c.098-.89.512-1.732 1.468-1.732 1.04 0 1.307.999 1.307 1.544L17.722 11.259 17.722 11.259zM9.509 5.446l-.116-.1H7.297l-.083.1c-.016.495-.048.64-.098.82l-2.84 9.933c-.017.115 0 .15.1.15h1.468c.099 0 .131-.03.149-.113l.792-2.986.003-.002h3.2l.825 3.002.146.096h1.651l.083-.13L9.509 5.446 9.509 5.446zM7.198 11.626c.414-1.552.956-3.53 1.17-4.7h.015c.246 1.17.927 3.594 1.206 4.7H7.198L7.198 11.626z"></path>
  <path fill="#B77EDD" d="M18.79 12.625h-5.651c.074 2.076 1.087 3.876 3.626 3.876.826 0 1.483-.116 2.011-.38.066-.05.1-.1.1-.2v-1.254L18.758 14.6c-.527.232-1.036.31-1.63.31-1.517 0-2.159-.906-2.178-2.257h2.604C18.073 12.653 18.493 12.641 18.79 12.625L18.79 12.625zM11.631 12.625H5.298l-1.022 3.574c-.017.115 0 .15.1.15h1.468c.099 0 .131-.03.149-.113l.792-2.986.003-.002h3.2l.825 3.002.146.096h1.651l.083-.13L11.631 12.625 11.631 12.625z"></path>
</svg>
